<svg id="Layer_1" data-name="Layer 1" xmlns="http://www.w3.org/2000/svg" viewBox="0 0 210 210"><defs><style>.cls-1{fill:#eee;stroke-width:9.76px;}.cls-1,.cls-3{stroke:#fff;}.cls-2,.cls-3{fill:none;}.cls-2{stroke:#f2eded;stroke-width:2.44px;}.cls-3{stroke-miterlimit:10;stroke-width:4px;}.cls-4{fill:#005eb8;}.cls-5{fill:#fbb040;}.cls-6{fill:#ed8b00;}.cls-7{fill:#fff;}</style></defs><title>-</title><g id="Rectangle-290"><path id="path-1" class="cls-1" d="M102.6,5h4.9a97.6,97.6,0,0,1,97.6,97.6v4.9a97.6,97.6,0,0,1-97.6,97.6h-4.9A97.75,97.75,0,0,1,5,107.4v-4.9A97.58,97.58,0,0,1,102.6,5Z"/><path id="path-1-2" data-name="path-1" class="cls-2" d="M102.6,5h4.9a97.6,97.6,0,0,1,97.6,97.6v4.9a97.6,97.6,0,0,1-97.6,97.6h-4.9A97.75,97.75,0,0,1,5,107.4v-4.9A97.58,97.58,0,0,1,102.6,5Z"/></g><line class="cls-3" x1="136.01" y1="72.55" x2="149.99" y2="58.57"/><circle class="cls-4" cx="150.75" cy="59.33" r="6.49" transform="translate(2.21 123.98) rotate(-45)"/><line class="cls-3" x1="72.63" y1="135.93" x2="58.65" y2="149.91"/><circle class="cls-4" cx="59.41" cy="150.67" r="6.49" transform="translate(-89.14 86.14) rotate(-45)"/><line class="cls-3" x1="104.01" y1="60.19" x2="104.01" y2="40.41"/><line class="cls-3" x1="104.01" y1="149.81" x2="104.01" y2="169.59"/><line class="cls-3" x1="59.19" y1="105" x2="39.41" y2="105"/><line class="cls-3" x1="148.82" y1="105" x2="168.6" y2="105"/><line class="cls-3" x1="74.15" y1="72.55" x2="60.17" y2="58.57"/><circle class="cls-4" cx="59.41" cy="59.33" r="6.49" transform="translate(-24.55 59.38) rotate(-45)"/><line class="cls-3" x1="137.53" y1="135.93" x2="151.52" y2="149.91"/><circle class="cls-4" cx="150.75" cy="150.67" r="6.49" transform="translate(-62.39 150.73) rotate(-45)"/><path class="cls-5" d="M151.48,110.1V99.7l-11.91-2.82a35.33,35.33,0,0,0-4.34-10.62l6.29-10.4-7.36-7.37-10.4,6.29a35.33,35.33,0,0,0-10.62-4.34l-3-11.91H99.69L96.86,70.44a35.33,35.33,0,0,0-10.62,4.34L75.85,68.49l-7.37,7.37,6.29,10.4a35.33,35.33,0,0,0-4.34,10.62L58.52,99.7v10.4l11.91,2.79a35.33,35.33,0,0,0,4.34,10.65l-6.29,10.4,7.37,7.59,10.4-6.29a35.33,35.33,0,0,0,10.6,4.34l2.82,11.91h10.4l2.82-11.91a35.33,35.33,0,0,0,10.62-4.34l10.4,6.29,7.37-7.37L135,123.74a35.33,35.33,0,0,0,4.34-10.62Z"/><path class="cls-6" d="M105,79.47a25.54,25.54,0,1,0,25.66,25.41h0A25.57,25.57,0,0,0,105,79.47Z"/><path class="cls-7" d="M98,113.36l-.82-3.12H91.79l-.84,3.12H86l5.43-16.72h6l5.5,16.72Zm-1.75-6.81-.72-2.73q-.25-.91-.61-2.36t-.47-2.07q-.1.58-.4,1.91t-1.34,5.25Z"/><path class="cls-7" d="M116.82,102a5.58,5.58,0,0,1-1.65,4.31,6.64,6.64,0,0,1-4.68,1.52h-1.26v5.52h-4.5V96.71h5.76a7,7,0,0,1,4.74,1.38A4.92,4.92,0,0,1,116.82,102Zm-7.59,2.16h.82a2.24,2.24,0,0,0,1.61-.57,2.07,2.07,0,0,0,.6-1.57q0-1.69-1.87-1.69h-1.16Z"/><path class="cls-7" d="M119.48,113.36V96.71H124v16.65Z"/></svg>